HIERARCHY
ROOT Hips
{
	OFFSET 0.000000 0.000000 0.000000
	CHANNELS 6 Xposition Yposition Zposition Zrotation Yrotation Xrotation 
	JOINT LHipJoint
	{
		OFFSET 0.000000 0.000000 0.000000
		CHANNELS 3 Zrotation Yrotation Xrotation
		JOINT LeftUpLeg
		{
			OFFSET 1.363060 -1.794630 0.839290
			CHANNELS 3 Zrotation Yrotation Xrotation
			JOINT LeftLeg
			{
				OFFSET 2.448110 -6.726130 0.000000
				CHANNELS 3 Zrotation Yrotation Xrotation
				JOINT LeftFoot
				{
					OFFSET 2.562200 -7.039590 0.000000
					CHANNELS 3 Zrotation Yrotation Xrotation
					JOINT LeftToeBase
					{
						OFFSET 0.157640 -0.433110 2.322550
						CHANNELS 3 Zrotation Yrotation Xrotation
						End Site
						{
							OFFSET 0.000000 0.000000 0.000000
						}
					}
				}
			}
		}
	}
	JOINT RHipJoint
	{
		OFFSET 0.000000 0.000000 0.000000
		CHANNELS 3 Zrotation Yrotation Xrotation
		JOINT RightUpLeg
		{
			OFFSET -1.305520 -1.794630 0.839290
			CHANNELS 3 Zrotation Yrotation Xrotation
			JOINT RightLeg
			{
				OFFSET -2.542530 -6.985550 0.000000
				CHANNELS 3 Zrotation Yrotation Xrotation
				JOINT RightFoot
				{
					OFFSET -2.568260 -7.056230 0.000000
					CHANNELS 3 Zrotation Yrotation Xrotation
					JOINT RightToeBase
					{
						OFFSET -0.164730 -0.452590 2.363150
						CHANNELS 3 Zrotation Yrotation Xrotation
						End Site
						{
							OFFSET 0.000000 0.000000 0.000000
						}
					}
				}
			}
		}
	}
	JOINT LowerBack
	{
		OFFSET 0.000000 0.000000 0.000000
		CHANNELS 3 Zrotation Yrotation Xrotation
		JOINT Spine
		{
			OFFSET 0.028270 2.035590 -0.193380
			CHANNELS 3 Zrotation Yrotation Xrotation
			JOINT Spine1
			{
				OFFSET 0.056720 2.048850 -0.042750
				CHANNELS 3 Zrotation Yrotation Xrotation
				JOINT Neck
				{
					OFFSET 0.000000 0.000000 0.000000
					CHANNELS 3 Zrotation Yrotation Xrotation
					JOINT Neck1
					{
						OFFSET -0.054170 1.746240 0.172020
						CHANNELS 3 Zrotation Yrotation Xrotation
						JOINT Head
						{
							OFFSET 0.104070 1.761360 -0.123970
							CHANNELS 3 Zrotation Yrotation Xrotation
							End Site
							{
								OFFSET 0.000000 0.000000 0.000000
							}
						}
					}
				}
				JOINT LeftShoulder
				{
					OFFSET 0.000000 0.000000 0.000000
					CHANNELS 3 Zrotation Yrotation Xrotation
					JOINT LeftArm
					{
						OFFSET 3.362410 1.200890 -0.311210
						CHANNELS 3 Zrotation Yrotation Xrotation
						JOINT LeftForeArm
						{
							OFFSET 4.983000 -0.000000 -0.000000
							CHANNELS 3 Zrotation Yrotation Xrotation
							JOINT LeftHand
							{
								OFFSET 3.483560 -0.000000 -0.000000
								CHANNELS 3 Zrotation Yrotation Xrotation
								JOINT LeftFingerBase
								{
									OFFSET 0.000000 0.000000 0.000000
									CHANNELS 3 Zrotation Yrotation Xrotation
									JOINT LeftHandIndex1
									{
										OFFSET 0.715260 -0.000000 -0.000000
										CHANNELS 3 Zrotation Yrotation Xrotation
										End Site
										{
											OFFSET 0.000000 0.000000 0.000000
										}
									}
								}
								JOINT LThumb
								{
									OFFSET 0.000000 0.000000 0.000000
									CHANNELS 3 Zrotation Yrotation Xrotation
									End Site
									{
										OFFSET 0.000000 0.000000 0.000000
									}
								}
							}
						}
					}
				}
				JOINT RightShoulder
				{
					OFFSET 0.000000 0.000000 0.000000
					CHANNELS 3 Zrotation Yrotation Xrotation
					JOINT RightArm
					{
						OFFSET -3.136600 1.374050 -0.404650
						CHANNELS 3 Zrotation Yrotation Xrotation
						JOINT RightForeArm
						{
							OFFSET -5.241900 -0.000000 -0.000000
							CHANNELS 3 Zrotation Yrotation Xrotation
							JOINT RightHand
							{
								OFFSET -3.444170 -0.000000 -0.000000
								CHANNELS 3 Zrotation Yrotation Xrotation
								JOINT RightFingerBase
								{
									OFFSET 0.000000 0.000000 0.000000
									CHANNELS 3 Zrotation Yrotation Xrotation
									JOINT RightHandIndex1
									{
										OFFSET -0.622530 -0.000000 -0.000000
										CHANNELS 3 Zrotation Yrotation Xrotation
										End Site
										{
											OFFSET 0.000000 0.000000 0.000000
										}
									}
								}
								JOINT RThumb
								{
									OFFSET 0.000000 0.000000 0.000000
									CHANNELS 3 Zrotation Yrotation Xrotation
									End Site
									{
										OFFSET 0.000000 0.000000 0.000000
									}
								}
							}
						}
					}
				}
			}
		}
	}
}
MOTION
Frames: 5
Frame Time: 0.008333
0.442981 16.499254 1.648707 40.103768 -84.922123 -14.053965 -11.266315 1.965632 -1.718877 -10.967595 1.907466 -14.995731 -1.706345 1.187041 33.626339 0.301275 0.007981 -6.841216 -0.015000 0.000000 -75.904100 8.529784 0.572304 2.263526 6.275831 -0.737694 -52.643092 3.272477 -0.268819 9.538643 0.200199 -0.179172 11.538802 -0.926700 -0.000001 -68.871201 8.476243 -3.331918 1.532956 1.047146 -3.725338 -2.692386 -6.687519 -3.852893 0.592127 12.067240 -5.441140 -4.023706 -3.901057 -0.313115 0.801581 0.000000 0.000000 0.000000 -6.550561 -3.805309 2.670175 -64.019864 -21.678996 13.340838 -3.190360 -33.113981 -0.009518 0.640942 5.441786 0.034847 -0.097881 0.154829 0.000000 0.000000 0.000000 0.000000 0.000000 0.000000 0.000000 19.210659 -6.705524 1.784493 57.865277 0.423941 -14.855478 3.275330 25.523900 0.010910 1.246887 5.964248 0.061901 0.082070 -0.082465 0.000000 0.000000 0.000000 0.000000 0.000000 0.000000 0.000000 
0.293767 16.520137 1.630087 35.250097 -85.408413 -8.707689 -11.346781 1.969909 -1.841227 -10.310877 2.537265 -16.770699 -1.491891 1.418962 36.077823 0.282798 -0.007404 -4.905226 0.015300 0.000001 -77.435000 8.546119 0.515674 2.361919 6.742301 0.041811 -52.799954 3.293037 -0.289644 10.073119 0.124316 -0.593684 11.071945 -1.091700 0.000000 -67.550900 9.297012 -3.150046 1.531497 1.199876 -3.581863 -2.708367 -6.642743 -3.713703 0.551712 11.984649 -5.200688 -4.099523 -3.888369 -0.311298 0.776022 0.000000 0.000000 0.000000 -6.622797 -3.523938 2.676627 -64.682808 -20.739273 13.020412 -3.136261 -32.372804 -0.009448 0.686549 5.539625 0.037409 -0.093880 0.150766 0.000000 0.000000 0.000000 0.000000 0.000000 0.000000 0.000000 19.065979 -6.330557 1.822039 57.893332 0.825032 -14.421659 3.285699 25.646544 0.011082 1.331950 5.979162 0.066609 0.081544 -0.085344 0.000000 0.000000 0.000000 0.000000 0.000000 0.000000 0.000000 
0.147207 16.540296 1.607280 30.786203 -85.855013 -3.732287 -11.426352 1.982457 -1.958735 -9.792186 3.138109 -18.664492 -1.278967 1.663783 38.623435 0.305238 0.160602 -2.889413 0.036200 -0.000000 -77.880600 8.561200 0.497081 2.442921 7.173121 0.736856 -52.946321 3.324481 -0.290452 10.535730 0.069179 -0.895093 10.503456 -1.209701 0.000000 -66.171000 9.950010 -2.971058 1.547987 1.314041 -3.433681 -2.719907 -6.602730 -3.569308 0.507838 11.964635 -4.964624 -4.171079 -3.877362 -0.309671 0.751319 0.000000 0.000000 0.000000 -6.559755 -3.293136 2.679099 -65.361829 -19.735986 12.651177 -3.076665 -31.646146 -0.009268 0.717563 5.619490 0.039271 -0.089665 0.146431 0.000000 0.000000 0.000000 0.000000 0.000000 0.000000 0.000000 18.994076 -5.959193 1.861389 57.935315 1.234079 -13.932971 3.291603 25.827641 0.011253 1.437787 5.990983 0.072418 0.080692 -0.088116 0.000000 0.000000 0.000000 0.000000 0.000000 0.000000 0.000000 
0.003089 16.559367 1.581408 26.539487 -86.263857 1.057502 -11.513550 1.991406 -2.064023 -9.380019 3.692182 -20.685504 -1.071674 1.916737 41.247781 0.369883 0.528540 -0.897423 0.066799 0.000000 -77.044300 8.562271 0.502619 2.515603 7.587835 1.363093 -53.085490 3.369355 -0.267097 10.887661 0.029880 -1.123566 9.904116 -1.298900 -0.000000 -64.789001 10.468219 -2.795230 1.562725 1.397912 -3.284197 -2.729077 -6.566652 -3.423019 0.469719 12.000974 -4.750303 -4.246085 -3.865939 -0.308020 0.725532 0.000000 0.000000 0.000000 -6.402328 -3.079589 2.679378 -66.036645 -18.724693 12.289831 -3.016855 -30.917957 -0.008997 0.729349 5.676344 0.040034 -0.085570 0.141886 0.000000 0.000000 0.000000 0.000000 0.000000 0.000000 0.000000 18.981273 -5.608724 1.900142 57.985167 1.670291 -13.387729 3.294278 26.058483 0.011437 1.552430 6.007242 0.078828 0.079647 -0.090850 0.000000 0.000000 0.000000 0.000000 0.000000 0.000000 0.000000 
-0.138164 16.577142 1.552423 23.107451 -86.575737 5.050503 -11.608839 1.976497 -2.152032 -9.105149 4.145466 -22.775732 -0.867866 2.162166 43.901919 0.475479 1.130400 0.964047 0.133300 0.000000 -74.791900 8.540891 0.513252 2.575560 7.966023 1.858469 -53.239636 3.426247 -0.232796 11.169623 0.010027 -1.245126 9.291202 -1.346000 0.000000 -63.448699 10.827956 -2.641803 1.575302 1.450726 -3.150564 -2.737459 -6.532939 -3.292368 0.432913 12.098443 -4.554086 -4.318341 -3.854034 -0.306409 0.700325 0.000000 0.000000 0.000000 -6.156644 -2.921128 2.683002 -66.692611 -17.690843 11.931514 -2.959183 -30.207754 -0.008651 0.715403 5.717823 0.039400 -0.081704 0.137169 0.000000 0.000000 0.000000 0.000000 0.000000 0.000000 0.000000 19.032516 -5.286007 1.938722 58.039439 2.116706 -12.787829 3.290834 26.350658 0.011605 1.661638 6.030538 0.085040 0.078367 -0.093547 0.000000 0.000000 0.000000 0.000000 0.000000 0.000000 0.000000 
